<svg id="Layer_1" data-name="Layer 1" xmlns="http://www.w3.org/2000/svg" xmlns:xlink="http://www.w3.org/1999/xlink" viewBox="0 0 115.3 126.12"><defs><clipPath id="clip-path"><path d="M47.65,32.53V22.44a9.83,9.83,0,0,1,4.64-8.25l.55-.35a9.6,9.6,0,0,1,9.79-.11l.12.06a9.6,9.6,0,0,1,4.84,8.36V32.53L79,39.14,88,34a9.65,9.65,0,0,1,9.64,0l.32.21a9.63,9.63,0,0,1,.09,16.64l-9.35,5.54.08,13.2L98,74.84a9.62,9.62,0,0,1,4.81,8.34v.41A9.61,9.61,0,0,1,98,91.92l-.32.21a9.8,9.8,0,0,1-9.64,0l-9-5.19L67.59,93.55v10.09A9.77,9.77,0,0,1,63,111.89l-.55.35a9.72,9.72,0,0,1-9.82.11l-.12-.09a9.71,9.71,0,0,1-4.84-8.33V93.55L36.17,86.94l-9,5.19a9.76,9.76,0,0,1-9.62,0l-.35-.21a9.6,9.6,0,0,1-.08-16.61l9.35-5.54-.09-13.2-9.18-5.3a9.66,9.66,0,0,1-4.83-8.34v-.44a9.59,9.59,0,0,1,4.83-8.33l.33-.21a9.65,9.65,0,0,1,9.64,0l9,5.19ZM57.85,0A22.3,22.3,0,0,0,46.4,3.18l-.56.35A22.29,22.29,0,0,0,35.35,19.88l-.43,3.81-3.5-1.54A22,22,0,0,0,11.37,23.2l-.35.2a22.16,22.16,0,0,0-11,19v.72A22.12,22.12,0,0,0,9.33,61l3.23,2.3L9.33,65.58A22.1,22.1,0,0,0,0,83.44v.35a22.21,22.21,0,0,0,11.05,19l.32.21a22.26,22.26,0,0,0,20.05,1l3.52-1.58.41,3.85a22.21,22.21,0,0,0,10.9,16.79l.15.08a22,22,0,0,0,22.5-.26l.55-.32a22.17,22.17,0,0,0,10.49-16.32l.44-3.82,3.5,1.58a21.73,21.73,0,0,0,9,1.89,22.17,22.17,0,0,0,11.08-3l.29-.18a22.18,22.18,0,0,0,11-19.12v-.4a22.19,22.19,0,0,0-9.33-18l-3.26-2.31,3.26-2.3a22.07,22.07,0,0,0-1.78-37.16l-.29-.17a22.17,22.17,0,0,0-20-1.08l-3.53,1.57L80,19.91A22.27,22.27,0,0,0,69,3l-.09-.06A22.25,22.25,0,0,0,57.85,0Z" style="fill:none"/></clipPath><linearGradient id="linear-gradient" x1="-258.33" y1="814.09" x2="-257.57" y2="814.09" gradientTransform="matrix(-82.66, -97.87, 97.87, -82.66, -100942.03, 42107.13)" gradientUnits="userSpaceOnUse"><stop offset="0" stop-color="#7ec2b1"/><stop offset="1" stop-color="#dfe67d"/></linearGradient></defs><title>Bitazza</title><g style="clip-path:url(#clip-path)"><polygon points="47.97 182.88 -62.16 52.46 67.27 -56.83 177.4 73.56 47.97 182.88" style="fill:url(#linear-gradient)"/></g></svg>