<svg id="Layer_1" data-name="Layer 1" xmlns="http://www.w3.org/2000/svg" viewBox="0 0 70.05 127.55"><title>icon</title><path d="M63.73,63.83,49.51,49.6,35,35.07A20.56,20.56,0,0,1,35,6L6,35.07A20.58,20.58,0,0,0,6,64.13L20.18,78.36l14.5,14.5a20.54,20.54,0,0,1,0,29.05l29-29.06a20.54,20.54,0,0,0,0-29Z" style="fill:#1437ed"/><path d="M35,35.07,49.51,49.6,64,35.1a20.55,20.55,0,1,0-29,0Zm-.3,57.82-14.5-14.5L5.68,92.89a20.53,20.53,0,0,0,29,29.06A20.56,20.56,0,0,0,34.71,92.89Z" style="fill:#1437ed;opacity:0.699999988079071;isolation:isolate"/></svg>